<?xml version="1.0" encoding="UTF-8" standalone="no"?>
<!DOCTYPE svg PUBLIC "-//W3C//DTD SVG 1.1//EN" "http://www.w3.org/Graphics/SVG/1.1/DTD/svg11.dtd">
<svg version="1.1" xmlns="http://www.w3.org/2000/svg" xmlns:xlink="http://www.w3.org/1999/xlink" preserveAspectRatio="xMidYMid meet" viewBox="0 0 600 857" width="600" height="857"><defs><path d="M240.13 24.59L238.02 28.86L235.94 33.1L233.89 37.31L231.86 41.48L229.85 45.62L227.87 49.73L225.91 53.81L223.97 57.85L222.06 61.86L220.17 65.84L218.31 69.79L216.47 73.7L214.65 77.58L212.86 81.43L211.09 85.25L209.35 89.03L207.63 92.78L205.93 96.5L204.26 100.18L202.61 103.83L200.99 107.45L199.39 111.04L197.81 114.59L196.26 118.12L194.73 121.61L193.23 125.06L191.75 128.49L190.29 131.88L188.86 135.24L187.45 138.56L186.06 141.86L184.7 145.12L183.37 148.35L182.05 151.54L180.77 154.7L179.5 157.83L178.26 160.93L177.94 161.75L177.59 162.62L177.23 163.55L176.85 164.53L176.46 165.56L176.05 166.64L175.62 167.77L175.18 168.93L174.73 170.13L174.27 171.37L173.79 172.65L173.31 173.95L172.82 175.28L172.32 176.64L171.81 178.02L171.3 179.41L170.79 180.83L170.27 182.26L169.75 183.7L169.22 185.15L168.7 186.61L168.18 188.07L167.66 189.53L167.14 190.99L166.63 192.44L166.12 193.89L165.61 195.32L165.12 196.75L164.63 198.15L164.15 199.54L163.68 200.91L163.22 202.25L162.77 203.57L162.34 204.85L161.92 206.11L161.51 207.33L161.12 208.51L160.75 209.65L160.39 210.75L160.05 211.8L159.4 213.86L158.75 215.95L158.1 218.05L157.45 220.18L156.81 222.33L156.16 224.5L155.52 226.7L154.87 228.92L154.23 231.16L153.59 233.42L152.94 235.71L152.3 238.02L151.66 240.35L151.02 242.7L150.39 245.08L149.75 247.47L149.11 249.89L148.48 252.34L147.84 254.8L147.21 257.29L146.58 259.8L145.95 262.34L145.32 264.89L144.69 267.47L144.06 270.07L143.43 272.7L142.8 275.34L142.18 278.01L141.55 280.7L140.93 283.41L140.31 286.15L139.68 288.91L139.06 291.69L138.44 294.49L137.82 297.32L137.21 300.17L136.59 303.04L135.97 305.93L135.36 308.85L134.74 311.79L121.69 406.85L118.56 453.02L118.39 455.68L118.23 458.34L118.09 461.01L117.96 463.67L117.85 466.33L117.76 469L117.68 471.66L117.62 474.32L117.57 476.99L117.54 479.65L117.52 482.31L117.52 484.98L117.54 487.64L117.57 490.3L117.61 492.96L117.67 495.63L117.75 498.29L117.84 500.95L117.95 503.61L118.08 506.27L118.22 508.93L118.37 511.59L118.54 514.24L118.73 516.9L118.93 519.55L119.15 522.21L119.38 524.86L119.63 527.51L119.89 530.16L120.17 532.81L120.47 535.46L120.78 538.1L121.11 540.75L121.45 543.39L121.81 546.03L122.18 548.67L122.57 551.31L122.97 553.94L123.39 556.58L123.83 559.21L129.89 595.23L130.32 597.7L130.76 600.17L131.23 602.63L131.71 605.09L132.21 607.54L132.73 609.99L133.27 612.43L133.83 614.87L134.41 617.31L135 619.74L135.62 622.16L136.25 624.58L136.9 627L137.57 629.41L138.26 631.81L138.97 634.21L139.7 636.6L140.44 638.99L141.2 641.37L141.98 643.74L142.78 646.11L143.6 648.47L144.44 650.83L145.29 653.18L146.17 655.52L147.06 657.86L147.97 660.19L148.89 662.51L149.84 664.83L150.8 667.13L151.78 669.44L152.78 671.73L153.8 674.02L154.83 676.3L155.89 678.57L156.96 680.83L158.05 683.09L159.15 685.33L160.28 687.57L161.42 689.81L169.78 705.99L170.62 707.61L171.47 709.23L172.33 710.84L173.2 712.44L174.08 714.04L174.97 715.63L175.87 717.22L176.78 718.8L177.7 720.37L178.63 721.94L179.56 723.51L180.51 725.06L181.47 726.62L182.43 728.16L183.4 729.7L184.39 731.24L185.38 732.77L186.38 734.29L187.39 735.81L188.41 737.32L189.44 738.82L190.47 740.32L191.52 741.82L192.57 743.3L193.64 744.78L194.71 746.26L195.79 747.72L196.88 749.18L197.98 750.64L199.09 752.09L200.2 753.53L201.33 754.96L202.46 756.39L203.61 757.81L204.76 759.23L205.92 760.63L207.09 762.04L208.26 763.43L208.59 763.81L210.01 765.39L211.61 767.12L213.22 768.84L214.86 770.53L216.51 772.2L218.18 773.86L219.86 775.49L221.57 777.11L223.29 778.7L225.03 780.27L226.79 781.83L228.57 783.36L230.36 784.87L232.17 786.37L233.99 787.84L235.83 789.29L237.69 790.72L239.56 792.12L241.45 793.51L243.36 794.87L245.28 796.22L247.22 797.54L249.17 798.84L251.13 800.11L253.11 801.37L255.11 802.6L257.12 803.81L259.14 805L261.18 806.16L263.23 807.31L265.29 808.42L267.37 809.52L269.46 810.59L271.57 811.64L273.69 812.67L275.82 813.67L277.96 814.65L280.11 815.6L282.28 816.53L303.55 825.51L276.34 834.63L275.12 835.03L273.89 835.42L272.66 835.79L271.42 836.15L270.18 836.5L268.94 836.83L267.7 837.15L266.45 837.45L265.2 837.74L263.94 838.02L262.69 838.28L261.43 838.53L260.17 838.77L258.91 838.99L257.64 839.19L256.37 839.38L255.1 839.56L253.83 839.73L252.56 839.87L251.29 840.01L250.01 840.13L248.73 840.24L247.46 840.33L246.18 840.41L244.9 840.47L243.61 840.52L242.33 840.56L241.05 840.58L239.77 840.59L238.48 840.58L237.2 840.56L235.92 840.52L234.63 840.47L233.35 840.41L232.07 840.33L230.79 840.24L229.5 840.13L228.22 840.01L226.94 839.87L225.66 839.72L218.47 838.83L217.22 838.67L215.97 838.5L214.73 838.32L213.48 838.13L212.24 837.92L211 837.71L209.76 837.48L208.53 837.24L207.3 837L206.07 836.74L204.84 836.47L203.62 836.19L202.4 835.9L201.18 835.59L199.96 835.28L198.75 834.96L197.54 834.62L196.33 834.28L195.13 833.92L193.93 833.55L192.73 833.17L191.54 832.79L190.35 832.39L189.16 831.98L187.98 831.56L186.8 831.13L185.63 830.69L184.45 830.24L183.29 829.77L182.12 829.3L180.96 828.82L179.81 828.32L178.66 827.82L177.51 827.31L176.37 826.78L175.23 826.25L174.09 825.7L172.97 825.15L172.62 824.96L171.3 824.23L169.98 823.49L168.68 822.74L167.38 821.98L166.09 821.21L164.8 820.42L163.53 819.62L162.26 818.81L161 817.99L159.75 817.16L158.51 816.31L157.27 815.46L156.04 814.59L154.83 813.71L153.61 812.82L152.41 811.92L151.22 811.01L150.03 810.08L148.86 809.15L147.69 808.2L146.53 807.25L145.38 806.28L144.24 805.3L143.11 804.31L141.99 803.31L140.87 802.3L139.77 801.28L138.67 800.25L137.59 799.21L136.51 798.16L135.45 797.09L134.39 796.02L133.34 794.94L132.31 793.85L131.28 792.74L130.26 791.63L129.26 790.51L128.26 789.38L124.94 785.56L123.46 783.85L121.99 782.12L120.54 780.39L119.11 778.64L117.69 776.87L116.28 775.1L114.9 773.32L113.52 771.52L112.17 769.71L110.83 767.89L109.5 766.06L108.19 764.22L106.9 762.37L105.62 760.51L104.36 758.63L103.11 756.75L101.89 754.86L100.67 752.95L99.48 751.04L98.3 749.11L97.14 747.18L95.99 745.23L94.86 743.28L93.75 741.31L92.65 739.34L91.57 737.36L90.51 735.36L89.46 733.36L88.44 731.35L87.42 729.33L86.43 727.3L85.45 725.26L84.49 723.21L83.55 721.16L82.63 719.09L81.72 717.02L80.83 714.94L79.96 712.85L79.1 710.75L78.27 708.65L75 700.33L73.94 697.58L72.89 694.81L71.86 692.04L70.85 689.27L69.87 686.48L68.91 683.69L67.96 680.9L67.04 678.09L66.14 675.28L65.26 672.47L64.4 669.64L63.57 666.82L62.75 663.98L61.96 661.14L61.19 658.3L60.44 655.45L59.71 652.59L59 649.73L58.31 646.86L57.65 643.99L57.01 641.11L56.39 638.23L55.79 635.34L55.21 632.45L54.65 629.56L54.12 626.66L53.6 623.75L53.11 620.85L52.64 617.94L52.19 615.02L51.77 612.1L51.36 609.18L50.98 606.25L50.62 603.32L50.28 600.39L49.97 597.45L49.67 594.51L49.4 591.57L49.15 588.63L48.92 585.68L48.03 573.52L47.85 570.95L47.68 568.38L47.53 565.81L47.38 563.23L47.26 560.66L47.15 558.08L47.05 555.51L46.96 552.93L46.89 550.36L46.84 547.78L46.79 545.21L46.76 542.63L46.75 540.06L46.75 537.48L46.76 534.91L46.79 532.33L46.83 529.76L46.88 527.18L46.95 524.61L47.03 522.03L47.13 519.46L47.24 516.89L47.36 514.32L47.5 511.74L47.65 509.17L47.82 506.6L48 504.04L48.19 501.47L48.4 498.9L48.62 496.33L48.86 493.77L49.11 491.2L49.37 488.64L49.64 486.08L49.94 483.52L50.24 480.96L50.56 478.4L50.89 475.85L51.24 473.29L51.6 470.74L54.1 453.35L54.56 450.16L55.04 446.97L55.53 443.79L56.04 440.61L56.56 437.43L57.09 434.26L57.64 431.09L58.2 427.92L58.78 424.75L59.37 421.58L59.97 418.42L60.58 415.26L61.21 412.11L61.85 408.95L62.51 405.8L63.18 402.65L63.86 399.51L64.56 396.37L65.27 393.23L65.99 390.09L66.73 386.96L67.48 383.83L68.25 380.71L69.02 377.58L69.82 374.46L70.62 371.35L71.44 368.23L72.27 365.13L73.12 362.02L73.97 358.92L74.85 355.82L75.73 352.72L76.63 349.63L77.54 346.54L78.47 343.46L79.41 340.38L80.36 337.3L81.32 334.23L82.3 331.16L83.29 328.1L99 279.93L111.17 249.75L112.53 246.4L113.9 243.05L115.28 239.71L116.68 236.37L118.09 233.04L119.52 229.71L120.95 226.39L122.4 223.08L123.86 219.77L125.33 216.47L126.82 213.17L128.32 209.88L129.83 206.59L131.35 203.31L132.89 200.04L134.44 196.77L136 193.51L137.57 190.25L139.16 187L140.76 183.76L142.37 180.52L143.99 177.29L145.63 174.07L147.28 170.85L148.94 167.63L150.61 164.43L152.3 161.23L153.99 158.04L155.7 154.85L157.43 151.67L159.16 148.49L160.91 145.33L162.67 142.17L164.44 139.01L166.22 135.86L168.02 132.72L169.82 129.59L171.64 126.46L173.47 123.34L175.32 120.23L176.01 119.06L176.7 117.9L177.39 116.75L178.07 115.61L178.75 114.48L179.42 113.35L180.09 112.23L180.76 111.12L181.42 110.02L182.08 108.93L182.73 107.84L183.38 106.77L184.03 105.7L184.67 104.64L185.31 103.59L185.94 102.54L186.57 101.51L187.19 100.48L187.82 99.46L188.43 98.45L189.05 97.45L189.65 96.45L190.26 95.47L190.86 94.49L191.46 93.52L192.05 92.56L192.64 91.61L193.22 90.66L193.8 89.72L194.38 88.79L194.95 87.87L195.52 86.96L196.09 86.06L196.65 85.16L197.2 84.27L197.75 83.39L198.3 82.52L198.85 81.66L199.39 80.8L199.92 79.96L201.27 77.83L202.61 75.73L203.94 73.64L205.26 71.58L206.57 69.54L207.88 67.52L209.17 65.52L210.45 63.55L211.73 61.59L212.99 59.66L214.25 57.75L215.49 55.85L216.73 53.98L217.96 52.14L219.18 50.31L220.38 48.5L221.58 46.72L222.77 44.96L223.95 43.21L225.13 41.49L226.29 39.8L227.44 38.12L228.58 36.46L229.72 34.83L230.84 33.21L231.96 31.62L233.06 30.05L234.16 28.5L235.24 26.97L236.32 25.47L237.39 23.98L238.45 22.52L239.5 21.08L240.54 19.66L241.57 18.26L242.59 16.88L243.6 15.52L244.6 14.19L245.6 12.87L246.58 11.58L244.4 15.95L242.25 20.29L242.25 20.29L240.13 24.59ZM172.97 825.15L173.95 825.67L175.28 826.37L170.72 824L171.84 824.58L172.96 825.15L172.96 825.15L172.97 825.15ZM314.39 113.11L324.53 116.63L334.53 120.43L344.37 124.52L354.05 128.88L363.57 133.51L372.92 138.41L382.11 143.58L391.11 148.99L399.94 154.66L408.58 160.58L417.03 166.73L425.28 173.12L433.34 179.74L441.19 186.59L448.84 193.66L456.27 200.94L463.49 208.43L470.48 216.13L477.25 224.02L483.79 232.11L490.09 240.39L496.15 248.86L501.97 257.5L507.54 266.31L512.86 275.3L517.92 284.45L522.71 293.76L527.24 303.22L531.5 312.82L535.48 322.58L539.19 332.46L542.6 342.49L545.73 352.64L548.56 362.91L551.1 373.3L553.33 383.8L555.25 394.41L556.86 405.12L561.22 437.38L563.12 475.21L563.45 484.44L563.53 493.65L563.36 502.81L562.94 511.94L562.27 521.03L561.35 530.07L560.19 539.06L558.79 548L557.16 556.87L555.28 565.68L553.17 574.42L550.83 583.09L548.26 591.68L545.47 600.18L542.44 608.6L539.2 616.93L535.74 625.17L532.06 633.3L528.16 641.34L524.05 649.26L519.73 657.07L515.21 664.76L510.48 672.33L505.54 679.78L500.4 687.09L495.07 694.28L489.53 701.32L483.81 708.22L477.89 714.97L471.78 721.57L465.49 728.01L459.01 734.29L452.35 740.4L445.51 746.35L438.49 752.12L431.3 757.72L423.93 763.13L416.39 768.35L408.69 773.38L400.82 778.22L346.56 810.53L317.56 778.64L314.56 775.3L311.59 771.94L308.65 768.55L305.74 765.13L302.87 761.69L300.04 758.22L297.23 754.72L294.46 751.2L291.73 747.65L289.03 744.08L286.37 740.49L283.74 736.87L281.14 733.22L278.58 729.55L276.06 725.86L273.57 722.15L271.11 718.41L268.69 714.65L266.31 710.86L263.97 707.06L261.66 703.23L259.38 699.38L257.15 695.5L254.95 691.61L252.79 687.7L250.66 683.76L248.57 679.8L246.52 675.83L244.51 671.83L242.53 667.82L240.59 663.78L238.69 659.72L236.83 655.65L235.01 651.56L233.22 647.45L231.48 643.32L229.77 639.17L228.1 635.01L226.47 630.82L224.88 626.62L211.59 591L201.85 554.47L199.21 544.16L196.77 533.82L194.53 523.45L192.48 513.06L190.64 502.65L189 492.22L187.55 481.77L186.31 471.31L185.26 460.84L184.41 450.36L183.76 439.88L183.31 429.39L183.05 418.9L182.99 408.42L183.12 397.94L183.46 387.47L183.98 377.02L184.71 366.57L185.62 356.15L186.74 345.74L188.04 335.36L189.54 325L191.24 314.67L193.13 304.37L195.21 294.11L197.48 283.88L199.95 273.69L202.61 263.54L205.46 253.44L208.5 243.38L211.73 233.38L215.15 223.43L218.77 213.53L222.57 203.7L226.57 193.92L230.75 184.21L235.12 174.57L239.69 164.99L244.44 155.49L249.38 146.06L273.24 101.55L293.67 106.96L304.1 109.89L304.1 109.89L314.39 113.11ZM208.59 763.81L208.44 763.64L206.88 761.87L210.64 766.2L209.45 764.82L209.45 764.82L208.59 763.81Z" id="bcS4zyG03"></path><radialGradient id="gradientbPrSEGVgj" gradientUnits="userSpaceOnUse" cx="363.6" cy="453.72" dx="-47.75" dy="453.72" r="411.35"><stop style="stop-color: #7995cf;stop-opacity: 1" offset="0%"></stop><stop style="stop-color: #001745;stop-opacity: 1" offset="100%"></stop></radialGradient><mask id="maskb3Fs3RB1kr" x="44.75" y="9.58" width="520.79" height="833.01" maskUnits="userSpaceOnUse"><rect x="44.75" y="9.58" width="520.79" height="833.01" fill="white"></rect><use xlink:href="#bcS4zyG03" opacity="1" fill="black"></use></mask></defs><g><g><g><g><filter id="shadow6038508" x="-19.25" y="-54.42" width="657.79" height="967.01" filterUnits="userSpaceOnUse" primitiveUnits="userSpaceOnUse"><feFlood></feFlood><feComposite in2="SourceAlpha" operator="in"></feComposite><feGaussianBlur stdDeviation="5"></feGaussianBlur><feOffset dx="9" dy="6" result="afterOffset"></feOffset><feFlood flood-color="#000000" flood-opacity="0.4"></feFlood><feComposite in2="afterOffset" operator="in"></feComposite><feMorphology operator="dilate" radius="2"></feMorphology><feComposite in2="SourceAlpha" operator="out"></feComposite></filter><path d="M240.13 24.59L238.02 28.86L235.94 33.1L233.89 37.31L231.86 41.48L229.85 45.62L227.87 49.73L225.91 53.81L223.97 57.85L222.06 61.86L220.17 65.84L218.31 69.79L216.47 73.7L214.65 77.58L212.86 81.43L211.09 85.25L209.35 89.03L207.63 92.78L205.93 96.5L204.26 100.18L202.61 103.83L200.99 107.45L199.39 111.04L197.81 114.59L196.26 118.12L194.73 121.61L193.23 125.06L191.75 128.49L190.29 131.88L188.86 135.24L187.45 138.56L186.06 141.86L184.7 145.12L183.37 148.35L182.05 151.54L180.77 154.7L179.5 157.83L178.26 160.93L177.94 161.75L177.59 162.62L177.23 163.55L176.85 164.53L176.46 165.56L176.05 166.64L175.62 167.77L175.18 168.93L174.73 170.13L174.27 171.37L173.79 172.65L173.31 173.95L172.82 175.28L172.32 176.64L171.81 178.02L171.3 179.41L170.79 180.83L170.27 182.26L169.75 183.7L169.22 185.15L168.7 186.61L168.18 188.07L167.66 189.53L167.14 190.99L166.63 192.44L166.12 193.89L165.61 195.32L165.12 196.75L164.63 198.15L164.15 199.54L163.68 200.91L163.22 202.25L162.77 203.57L162.34 204.85L161.92 206.11L161.51 207.33L161.12 208.51L160.75 209.65L160.39 210.75L160.05 211.8L159.4 213.86L158.75 215.95L158.1 218.05L157.45 220.18L156.81 222.33L156.16 224.5L155.52 226.7L154.87 228.92L154.23 231.16L153.59 233.42L152.94 235.71L152.3 238.02L151.66 240.35L151.02 242.7L150.39 245.08L149.75 247.47L149.11 249.89L148.48 252.34L147.84 254.8L147.21 257.29L146.58 259.8L145.95 262.34L145.32 264.89L144.69 267.47L144.06 270.07L143.43 272.7L142.8 275.34L142.18 278.01L141.55 280.7L140.93 283.41L140.31 286.15L139.68 288.91L139.06 291.69L138.44 294.49L137.82 297.32L137.21 300.17L136.59 303.04L135.97 305.93L135.36 308.85L134.74 311.79L121.69 406.85L118.56 453.02L118.39 455.68L118.23 458.34L118.09 461.01L117.96 463.67L117.85 466.33L117.76 469L117.68 471.66L117.62 474.32L117.57 476.99L117.54 479.65L117.52 482.31L117.52 484.98L117.54 487.64L117.57 490.3L117.61 492.96L117.67 495.63L117.75 498.29L117.84 500.95L117.95 503.61L118.08 506.27L118.22 508.93L118.37 511.59L118.54 514.24L118.73 516.9L118.93 519.55L119.15 522.21L119.38 524.86L119.63 527.51L119.89 530.16L120.17 532.81L120.47 535.46L120.78 538.1L121.11 540.75L121.45 543.39L121.81 546.03L122.18 548.67L122.57 551.31L122.97 553.94L123.39 556.58L123.83 559.21L129.89 595.23L130.32 597.7L130.76 600.17L131.23 602.63L131.71 605.09L132.21 607.54L132.73 609.99L133.27 612.43L133.83 614.87L134.41 617.31L135 619.74L135.62 622.16L136.25 624.58L136.9 627L137.57 629.41L138.26 631.81L138.97 634.21L139.7 636.6L140.44 638.99L141.2 641.37L141.98 643.74L142.78 646.11L143.6 648.47L144.44 650.83L145.29 653.18L146.17 655.52L147.06 657.86L147.97 660.19L148.89 662.51L149.84 664.83L150.8 667.13L151.78 669.44L152.78 671.73L153.8 674.02L154.83 676.3L155.89 678.57L156.96 680.83L158.05 683.09L159.15 685.33L160.28 687.57L161.42 689.81L169.78 705.99L170.62 707.61L171.47 709.23L172.33 710.84L173.2 712.44L174.08 714.04L174.97 715.63L175.87 717.22L176.78 718.8L177.7 720.37L178.63 721.94L179.56 723.51L180.51 725.06L181.47 726.62L182.43 728.16L183.4 729.7L184.39 731.24L185.38 732.77L186.38 734.29L187.39 735.81L188.41 737.32L189.44 738.82L190.47 740.32L191.52 741.82L192.57 743.3L193.64 744.78L194.71 746.26L195.79 747.72L196.88 749.18L197.98 750.64L199.09 752.09L200.2 753.53L201.33 754.96L202.46 756.39L203.61 757.81L204.76 759.23L205.92 760.63L207.09 762.04L208.26 763.43L208.59 763.81L210.01 765.39L211.61 767.12L213.22 768.84L214.86 770.53L216.51 772.2L218.18 773.86L219.86 775.49L221.57 777.11L223.29 778.7L225.03 780.27L226.79 781.83L228.57 783.36L230.36 784.87L232.17 786.37L233.99 787.84L235.83 789.29L237.69 790.72L239.56 792.12L241.45 793.51L243.36 794.87L245.28 796.22L247.22 797.54L249.17 798.84L251.13 800.11L253.11 801.37L255.11 802.6L257.12 803.81L259.14 805L261.18 806.16L263.23 807.31L265.29 808.42L267.37 809.52L269.46 810.59L271.57 811.64L273.69 812.67L275.82 813.67L277.96 814.65L280.11 815.6L282.28 816.53L303.55 825.51L276.34 834.63L275.12 835.03L273.89 835.42L272.66 835.79L271.42 836.15L270.18 836.5L268.94 836.83L267.7 837.15L266.45 837.45L265.2 837.74L263.94 838.02L262.69 838.28L261.43 838.53L260.17 838.77L258.91 838.99L257.64 839.19L256.37 839.38L255.1 839.56L253.83 839.73L252.56 839.87L251.29 840.01L250.01 840.13L248.73 840.24L247.46 840.33L246.18 840.41L244.9 840.47L243.61 840.52L242.33 840.56L241.05 840.58L239.77 840.59L238.48 840.58L237.2 840.56L235.92 840.52L234.63 840.47L233.35 840.41L232.07 840.33L230.79 840.24L229.5 840.13L228.22 840.01L226.94 839.87L225.66 839.72L218.47 838.83L217.22 838.67L215.97 838.5L214.73 838.32L213.48 838.13L212.24 837.92L211 837.71L209.76 837.48L208.53 837.24L207.3 837L206.07 836.74L204.84 836.47L203.62 836.19L202.4 835.9L201.18 835.59L199.96 835.28L198.75 834.96L197.54 834.62L196.33 834.28L195.13 833.92L193.93 833.55L192.73 833.17L191.54 832.79L190.35 832.39L189.16 831.98L187.98 831.56L186.8 831.13L185.63 830.69L184.45 830.24L183.29 829.77L182.12 829.3L180.96 828.82L179.81 828.32L178.66 827.82L177.51 827.31L176.37 826.78L175.23 826.25L174.09 825.7L172.97 825.15L172.62 824.96L171.3 824.23L169.98 823.49L168.68 822.74L167.38 821.98L166.09 821.21L164.8 820.42L163.53 819.62L162.26 818.81L161 817.99L159.75 817.16L158.51 816.31L157.27 815.46L156.04 814.59L154.83 813.71L153.61 812.82L152.41 811.92L151.22 811.01L150.03 810.08L148.86 809.15L147.69 808.2L146.53 807.25L145.38 806.28L144.24 805.3L143.11 804.31L141.99 803.31L140.87 802.3L139.77 801.28L138.67 800.25L137.59 799.21L136.51 798.16L135.45 797.09L134.39 796.02L133.34 794.94L132.31 793.85L131.28 792.74L130.26 791.63L129.26 790.51L128.26 789.38L124.94 785.56L123.46 783.85L121.99 782.12L120.54 780.39L119.11 778.64L117.69 776.87L116.28 775.1L114.9 773.32L113.52 771.52L112.17 769.71L110.83 767.89L109.5 766.06L108.19 764.22L106.9 762.37L105.62 760.51L104.36 758.63L103.11 756.75L101.89 754.86L100.67 752.95L99.48 751.04L98.3 749.11L97.14 747.18L95.99 745.23L94.86 743.28L93.75 741.31L92.65 739.34L91.57 737.36L90.51 735.36L89.46 733.36L88.44 731.35L87.42 729.33L86.43 727.3L85.45 725.26L84.49 723.21L83.55 721.16L82.63 719.09L81.72 717.02L80.83 714.94L79.96 712.85L79.1 710.75L78.27 708.65L75 700.33L73.94 697.58L72.89 694.81L71.86 692.04L70.85 689.27L69.87 686.48L68.91 683.69L67.96 680.9L67.04 678.09L66.14 675.28L65.26 672.47L64.4 669.64L63.57 666.82L62.75 663.98L61.96 661.14L61.19 658.3L60.44 655.45L59.71 652.59L59 649.73L58.31 646.86L57.65 643.99L57.01 641.11L56.39 638.23L55.79 635.34L55.21 632.45L54.65 629.56L54.12 626.66L53.6 623.75L53.11 620.85L52.64 617.94L52.19 615.02L51.77 612.1L51.36 609.18L50.98 606.25L50.62 603.32L50.28 600.39L49.97 597.45L49.67 594.51L49.4 591.57L49.15 588.63L48.92 585.68L48.03 573.52L47.85 570.95L47.68 568.38L47.53 565.81L47.38 563.23L47.26 560.66L47.15 558.08L47.05 555.51L46.96 552.93L46.89 550.36L46.84 547.78L46.79 545.21L46.76 542.63L46.75 540.06L46.75 537.48L46.76 534.91L46.79 532.33L46.83 529.76L46.88 527.18L46.95 524.61L47.03 522.03L47.13 519.46L47.24 516.89L47.36 514.32L47.5 511.74L47.65 509.17L47.82 506.6L48 504.04L48.19 501.47L48.4 498.9L48.62 496.33L48.86 493.77L49.11 491.2L49.37 488.64L49.64 486.08L49.94 483.52L50.24 480.96L50.56 478.4L50.89 475.85L51.24 473.29L51.6 470.74L54.1 453.35L54.56 450.16L55.04 446.97L55.53 443.79L56.04 440.61L56.56 437.43L57.09 434.26L57.64 431.09L58.2 427.92L58.78 424.75L59.37 421.58L59.97 418.42L60.58 415.26L61.21 412.11L61.85 408.95L62.51 405.8L63.18 402.65L63.86 399.51L64.56 396.37L65.27 393.23L65.99 390.09L66.73 386.96L67.48 383.83L68.25 380.71L69.02 377.58L69.82 374.46L70.62 371.35L71.44 368.23L72.27 365.13L73.12 362.02L73.97 358.92L74.85 355.82L75.73 352.72L76.63 349.63L77.54 346.54L78.47 343.46L79.41 340.38L80.36 337.3L81.32 334.23L82.3 331.16L83.29 328.1L99 279.93L111.17 249.75L112.53 246.4L113.9 243.05L115.28 239.71L116.68 236.37L118.09 233.04L119.52 229.71L120.95 226.39L122.4 223.08L123.86 219.77L125.33 216.47L126.82 213.17L128.32 209.88L129.83 206.59L131.35 203.31L132.89 200.04L134.44 196.77L136 193.51L137.57 190.25L139.16 187L140.76 183.76L142.37 180.52L143.99 177.29L145.63 174.07L147.28 170.85L148.94 167.63L150.61 164.43L152.3 161.23L153.99 158.04L155.7 154.85L157.43 151.67L159.16 148.49L160.91 145.33L162.67 142.17L164.44 139.01L166.22 135.86L168.02 132.72L169.82 129.59L171.64 126.46L173.47 123.34L175.32 120.23L176.01 119.06L176.7 117.9L177.39 116.75L178.07 115.61L178.75 114.48L179.42 113.35L180.09 112.23L180.76 111.12L181.42 110.02L182.08 108.93L182.73 107.84L183.38 106.77L184.03 105.7L184.67 104.64L185.31 103.59L185.94 102.54L186.57 101.51L187.19 100.48L187.82 99.46L188.43 98.45L189.05 97.45L189.65 96.45L190.26 95.47L190.86 94.49L191.46 93.52L192.05 92.56L192.64 91.61L193.22 90.66L193.8 89.72L194.38 88.79L194.95 87.87L195.52 86.96L196.09 86.06L196.65 85.16L197.2 84.27L197.75 83.39L198.3 82.52L198.85 81.66L199.39 80.8L199.92 79.96L201.27 77.83L202.61 75.73L203.94 73.64L205.26 71.58L206.57 69.54L207.88 67.52L209.17 65.52L210.45 63.55L211.73 61.59L212.99 59.66L214.25 57.75L215.49 55.85L216.73 53.98L217.96 52.14L219.18 50.31L220.38 48.5L221.58 46.72L222.77 44.96L223.95 43.21L225.13 41.49L226.29 39.8L227.44 38.12L228.58 36.46L229.72 34.83L230.84 33.21L231.96 31.62L233.06 30.05L234.16 28.5L235.24 26.97L236.32 25.47L237.39 23.98L238.45 22.52L239.5 21.08L240.54 19.66L241.57 18.26L242.59 16.88L243.6 15.52L244.6 14.19L245.6 12.87L246.58 11.58L244.4 15.95L242.25 20.29L242.25 20.29L240.13 24.59ZM172.97 825.15L173.95 825.67L175.28 826.37L170.72 824L171.84 824.58L172.96 825.15L172.96 825.15L172.97 825.15ZM314.39 113.11L324.53 116.63L334.53 120.43L344.37 124.52L354.05 128.88L363.57 133.51L372.92 138.41L382.11 143.58L391.11 148.99L399.94 154.66L408.58 160.58L417.03 166.73L425.28 173.12L433.34 179.74L441.19 186.59L448.84 193.66L456.27 200.94L463.49 208.43L470.48 216.13L477.25 224.02L483.79 232.11L490.09 240.39L496.15 248.86L501.97 257.5L507.54 266.31L512.86 275.3L517.92 284.45L522.71 293.76L527.24 303.22L531.5 312.82L535.48 322.58L539.19 332.46L542.6 342.49L545.73 352.64L548.56 362.91L551.1 373.3L553.33 383.8L555.25 394.41L556.86 405.12L561.22 437.38L563.12 475.21L563.45 484.44L563.53 493.65L563.36 502.81L562.94 511.94L562.27 521.03L561.35 530.07L560.19 539.06L558.79 548L557.16 556.87L555.28 565.68L553.17 574.42L550.83 583.09L548.26 591.68L545.47 600.18L542.44 608.6L539.2 616.93L535.74 625.17L532.06 633.3L528.16 641.34L524.05 649.26L519.73 657.07L515.21 664.76L510.48 672.33L505.54 679.78L500.4 687.09L495.07 694.28L489.53 701.32L483.81 708.22L477.89 714.97L471.78 721.57L465.49 728.01L459.01 734.29L452.35 740.4L445.51 746.35L438.49 752.12L431.3 757.72L423.93 763.13L416.39 768.35L408.69 773.38L400.82 778.22L346.56 810.53L317.56 778.64L314.56 775.3L311.59 771.94L308.65 768.55L305.74 765.13L302.87 761.69L300.04 758.22L297.23 754.72L294.46 751.2L291.73 747.65L289.03 744.08L286.37 740.49L283.74 736.87L281.14 733.22L278.58 729.55L276.06 725.86L273.57 722.15L271.11 718.41L268.69 714.65L266.31 710.86L263.97 707.06L261.66 703.23L259.38 699.38L257.15 695.5L254.95 691.61L252.79 687.7L250.66 683.76L248.57 679.8L246.52 675.83L244.51 671.83L242.53 667.82L240.59 663.78L238.69 659.72L236.83 655.65L235.01 651.56L233.22 647.45L231.48 643.32L229.77 639.17L228.1 635.01L226.47 630.82L224.88 626.62L211.59 591L201.85 554.47L199.21 544.16L196.77 533.82L194.53 523.45L192.48 513.06L190.64 502.65L189 492.22L187.55 481.77L186.31 471.31L185.26 460.84L184.41 450.36L183.76 439.88L183.31 429.39L183.05 418.9L182.99 408.42L183.12 397.94L183.46 387.47L183.98 377.02L184.71 366.57L185.62 356.15L186.74 345.74L188.04 335.36L189.54 325L191.24 314.67L193.13 304.37L195.21 294.11L197.48 283.88L199.95 273.69L202.61 263.54L205.46 253.44L208.5 243.38L211.73 233.38L215.15 223.43L218.77 213.53L222.57 203.7L226.57 193.92L230.75 184.21L235.12 174.57L239.69 164.99L244.44 155.49L249.38 146.06L273.24 101.55L293.67 106.96L304.1 109.89L304.1 109.89L314.39 113.11ZM208.59 763.81L208.44 763.64L206.88 761.87L210.64 766.2L209.45 764.82L209.45 764.82L208.59 763.81Z" id="c6giWiPJLT" fill="white" fill-opacity="1" filter="url(#shadow6038508)"></path></g><use xlink:href="#bcS4zyG03" opacity="1" fill="url(#gradientbPrSEGVgj)"></use><g mask="url(#maskb3Fs3RB1kr)"><use xlink:href="#bcS4zyG03" opacity="1" fill-opacity="0" stroke="#94b4f5" stroke-width="2" stroke-opacity="1"></use></g></g></g></g></svg>