<?xml version="1.0" encoding="UTF-8" standalone="no"?>
<!DOCTYPE svg PUBLIC "-//W3C//DTD SVG 1.1//EN" "http://www.w3.org/Graphics/SVG/1.1/DTD/svg11.dtd">
<svg version="1.1" xmlns="http://www.w3.org/2000/svg" xmlns:xlink="http://www.w3.org/1999/xlink" preserveAspectRatio="xMidYMid meet" viewBox="0 0 640 640" width="640" height="640"><defs><path d="" id="auNdfJ9kJ"></path><path d="M120 457.6C126.39 451.67 130.38 447.97 131.98 446.49C141.21 437.92 153.47 433.35 166.06 433.8C169.68 433.92 162.12 433.66 166.06 433.8C177.77 434.21 189.27 430.6 198.65 423.57C198.83 423.43 199.28 423.09 200 422.55L228.96 400.84L270 370.08C281.85 376.49 289.25 380.5 292.22 382.11C298.97 385.77 305.45 389.92 311.6 394.53C316.44 398.17 318.71 399.87 322.8 402.94C331.47 409.44 340.78 415.04 350.6 419.65C356.48 422.41 362.47 425.22 369.13 428.34C374.23 430.74 375.16 437.59 370.89 441.26C366.02 445.44 363.84 447.31 359.81 450.77C351.17 458.18 345.04 468.08 342.25 479.11C339.8 488.81 341.1 483.68 339.74 489.06C333.29 514.56 322.48 538.75 307.76 560.55C306.21 562.86 309.65 557.77 304.56 565.31C302.15 568.87 303.46 573.74 307.33 575.62C319.57 581.57 329.52 586.49 337.18 590.39C348.15 595.98 353.11 598.87 360 602.75C364.25 605.15 366.34 606.32 366.28 606.26C372.46 611.55 381.66 611.19 387.41 605.44C388.35 604.5 383.56 609.29 385.15 607.7C388.78 604.07 388.3 598.04 384.13 595.03C379.31 591.55 371.78 586.11 366.7 582.44C362.26 579.23 358.3 575.4 354.95 571.06C352.87 568.37 351.64 566.77 349.54 564.06C346.36 559.94 345 554.69 345.79 549.53C346.01 548.11 344.68 556.78 344.71 556.57C346.14 547.26 349.72 538.4 355.18 530.71C356.14 529.36 358.54 525.98 362.38 520.57C389.55 485.38 406.53 463.39 413.32 454.59C419.4 446.73 422.26 436.85 421.34 426.96C421.07 424.1 421.65 430.34 421.37 427.33C420.48 417.76 416.76 408.67 410.7 401.21C403.61 392.49 396.34 383.55 390.42 376.27C380.37 363.9 368.45 353.17 355.1 344.46C348.08 339.88 338.91 333.9 329.83 327.97C323.9 324.11 320.96 317 322.43 310.08C323.04 307.19 321.46 314.67 321.82 312.95C324.23 301.58 329.47 291.01 337.06 282.21C338.45 280.59 341.94 276.55 347.52 270.08C352.47 263.1 355.56 258.74 356.79 256.99C361.21 250.75 366.25 244.96 371.81 239.71C373.28 238.32 370.14 241.29 371.81 239.71C371.81 239.71 387.24 226.71 387.24 226.71C387.6 226.43 388.53 225.74 390 224.63C394.82 235.27 397.84 241.91 399.05 244.57C402.22 251.56 406.12 258.2 410.67 264.38C417.05 273.02 429.25 289.54 435.6 298.16C438.96 302.71 445.85 302.48 448.89 297.71C459.11 281.68 484.3 242.21 494.73 225.86C498.24 220.36 502.17 215.15 506.49 210.28C507.99 208.59 511.74 204.36 517.73 197.6L525.99 192.08C533.85 188.83 538.76 186.8 540.73 185.99C543.49 184.85 542.96 180.79 540 180.39C540 180.39 540 180.39 540 180.39L520 187.6C530.64 176.29 537.3 169.22 539.96 166.39C540.87 165.42 539.55 163.99 538.51 164.81C534.17 168.24 527.19 173.76 521.49 178.27C520.69 178.91 519.63 177.91 520.21 177.07C525.27 169.74 533.27 158.16 537.38 152.22C538.34 150.83 536.46 149.24 535.25 150.42C530.2 155.34 521.13 164.18 515.03 170.13C514.29 170.85 513.13 169.92 513.67 169.04C518.13 161.78 521.9 155.64 524.87 150.79C525.91 149.1 523.56 147.4 522.28 148.91C517.42 154.65 508.55 165.15 501.7 173.25C500.27 174.94 497.52 174.15 497.2 171.96C496.57 167.62 496.07 164.17 495.59 160.81C495.3 158.81 492.43 158.74 492.05 160.73C490.97 166.33 488.27 180.34 483.96 202.75C464.66 229.7 452.6 246.55 447.77 253.28C444.88 257.32 438.57 255.87 437.72 250.99C436.91 246.31 436.9 246.24 436.12 241.77C434.5 232.4 431.18 223.41 426.32 215.24C424.23 211.72 420.18 204.9 416.8 199.22C416.17 198.16 415.78 196.96 415.67 195.73C415.32 192.1 415.65 195.62 415.61 195.12C414.54 183.78 409.65 173.14 401.74 164.95C401.5 164.71 400.93 164.11 400 163.15C403.23 162.34 405.24 161.84 406.05 161.64C407.23 161.34 408.47 161.62 409.41 162.4C411.85 164.43 417.95 169.49 427.72 177.6L440 167.6L450 164.14L455.45 165.13L457.43 157.6L465.35 147.6C467.79 146.31 469.31 145.5 469.92 145.18C473.46 143.3 476.8 141.07 479.89 138.51C482.53 136.33 483.86 135.23 486.01 133.45C490.42 129.79 492.72 124.18 492.14 118.49C491.71 114.31 491.33 110.59 490.89 106.33C490.31 100.59 488.41 95.06 485.34 90.16C483.32 86.94 482.37 85.41 480.46 82.36C477.03 76.89 472.35 72.32 466.8 69.03C462.95 66.75 459.88 64.93 456.04 62.65C450.82 59.55 444.29 59.65 439.16 62.9C435.33 65.33 434.97 65.55 431.83 67.54C424.02 72.48 417.28 78.93 411.99 86.51C408.21 91.94 402.95 99.47 398.69 105.58C395.07 110.77 389.66 114.44 383.5 115.89C382.05 116.24 385.92 115.32 384.13 115.75C379.04 116.94 373.69 116.26 369.07 113.81C365.25 111.8 369.13 113.85 367.35 112.91C355.92 106.87 343.31 103.41 330.4 102.77C330.35 102.77 330.22 102.76 330 102.75L282.18 97.6C261.48 98.76 248.54 99.49 243.36 99.78C231.79 100.43 220.54 103.88 210.59 109.82C199.36 116.52 196.17 118.43 188.78 122.84C188.78 122.84 122.59 167.49 122.59 167.49C117.28 171.51 112.7 174.98 102.26 182.89C101.33 183.59 102.17 185.04 103.24 184.6C105.48 183.66 111.06 181.33 120 177.6C108.63 190.75 101.52 198.97 98.68 202.26C98 203.05 99 204.16 99.86 203.56C102.91 201.44 110.55 196.12 122.77 187.6C116.44 198.81 112.47 205.82 110.89 208.62C110.16 209.91 111.8 211.23 112.91 210.24C115.19 208.18 120.88 203.05 130 194.83L128.1 210.92C127.28 214.51 126.77 216.76 126.56 217.65C126.33 218.65 127.73 219.13 128.17 218.21C129.75 214.82 133.69 206.37 140 192.85L147.52 189.88L152.48 213.64L156.04 210.39L156.44 190.39L160 181.96L154.46 170.08L220 143.34L244.55 130.47C276.54 139.6 296.54 145.3 304.53 147.59C309.72 149.07 312.71 154.5 311.17 159.67C308.87 167.4 303.14 186.71 293.96 217.6C287.69 234.41 283.78 244.91 282.21 249.11C278.28 259.66 272.03 269.18 263.94 276.99C259.66 281.12 256.88 283.8 252.05 288.47C245.84 294.45 241.32 301.96 238.94 310.25C237.95 313.72 238.22 312.76 237.14 316.55C235.08 323.72 230.71 330.01 224.71 334.44C221.16 337.08 221.52 336.81 218.41 339.11C210.82 344.72 204.33 351.69 199.26 359.65C196.4 364.15 196.67 363.72 194.1 367.75C188.09 377.21 179.92 385.1 170.26 390.78C168.88 391.59 175.73 387.56 173.42 388.91C166.73 392.85 159.73 396.24 152.49 399.05C145.99 401.57 147.56 400.97 143.6 402.5C128.04 408.54 113.89 417.75 102.06 429.53C97.43 434.15 85.85 445.68 67.33 464.14L50 467.6C50 468.56 50 469.16 50 469.4C50 477.65 51.99 485.78 55.81 493.1C57.32 496 55.27 492.08 56.59 494.61C61.03 503.12 63.13 512.65 62.68 522.24C62.54 525.08 62.97 527.79 63.96 530.39C66 535.76 69.71 541.09 75.08 546.4C76.9 548.2 80 546.91 80 544.34C80 532.99 80 513.05 80 503.5C80 493.49 84.71 484.07 92.72 478.07C96.35 475.34 105.45 468.52 120 457.6Z" id="d1ngVV85Pn"></path><radialGradient id="gradienth5nW9evq1L" gradientUnits="userSpaceOnUse" cx="296.27" cy="60.39" dx="296.27" dy="610" r="549.61"><stop style="stop-color: #0672f8;stop-opacity: 1" offset="0%"></stop><stop style="stop-color: #010000;stop-opacity: 1" offset="100%"></stop></radialGradient><mask id="maska3SCJP4kwq" x="48" y="58.39" width="496.53" height="553.61" maskUnits="userSpaceOnUse"><rect x="48" y="58.39" width="496.53" height="553.61" fill="white"></rect><use xlink:href="#d1ngVV85Pn" opacity="1" fill="black"></use></mask></defs><g><g><g><g><use xlink:href="#auNdfJ9kJ" opacity="1" fill-opacity="0" stroke="#000000" stroke-width="1" stroke-opacity="1"></use></g></g><g><use xlink:href="#d1ngVV85Pn" opacity="1" fill="url(#gradienth5nW9evq1L)"></use><g mask="url(#maska3SCJP4kwq)"><use xlink:href="#d1ngVV85Pn" opacity="1" fill-opacity="0" stroke="#074754" stroke-width="2" stroke-opacity="1"></use></g></g></g></g></svg>